# xmcd CD database file
#
# Track frame offsets:
#	150
#	13670
#	25777
#	42487
#	56435
#	72172
#	83572
#	96785
#	107612
#	124165
#	136257
#
# Disc length: 1982 seconds
#
# Revision: 4
# Processed by: cddbd v1.5.2PL0 Copyright (c) Steve Scherf et al.
# Submitted via: CDex 1.50
#
DISCID=8707bc0b
DTITLE=Brooks and Dunn - It Won't Be Christmas Without You
DYEAR=2002
DGENRE=Country
TTITLE0=Winter Wonderland
TTITLE1=Hangin' 'Round The Mistletoe
TTITLE2=It Won't Be Christmas Without You
TTITLE3=Rockin' Little Christmas
TTITLE4=Blue Christmas
TTITLE5=Santa's Coming Over To Your House
TTITLE6=The Christmas Song
TTITLE7=Santa Claus Is Comin' To Town
TTITLE8=Who Says There Ain't No Santa
TTITLE9=I'll Be Home For Christmas
TTITLE10=White Christmas
EXTD=YEAR: 2002
EXTT0=
EXTT1=
EXTT2=
EXTT3=
EXTT4=
EXTT5=
EXTT6=
EXTT7=
EXTT8=
EXTT9=
EXTT10=
PLAYORDER=
